<svg xmlns="http://www.w3.org/2000/svg" viewBox="0 0 200 48">
  <svg x="0" y="0" width="48" height="48" viewBox="0 0 128 128">
    <path fill="#0D9488" d="M86,6L32,6c-7.2,0-13,5.8-13,13v90c0,7.2,5.8,13,13,13h64c7.2,0,13-5.8,13-13V29c0-6.1-2.4-11.9-6.7-16.3S92.1,6,86,6z M41.5,55c0-4.1,3.4-7.5,7.5-7.5s7.5,3.4,7.5,7.5s-3.4,7.5-7.5,7.5S41.5,59.1,41.5,55z M78.8,74.8C77.7,82,71.5,87.5,64,87.5S50.3,82,49.2,74.8c-0.2-1.2,0.7-2.3,2-2.3h25.7C78.1,72.5,79,73.6,78.8,74.8z M84,58h-9c-1.7,0-3-1.3-3-3s1.3-3,3-3h9c1.7,0,3,1.3,3,3S85.7,58,84,58z M96,26c-3.9,0-7-3.1-7-7l0-6.7c3.4,0.6,6.5,2.2,9,4.7c2.5,2.5,4.1,5.6,4.7,9H96z"/>
  </svg>
  <text x="56" y="33" font-family="Inter, system-ui, sans-serif" font-size="24" font-weight="600" fill="#1a1f36">amanat</text>
</svg>
