<svg xmlns="http://www.w3.org/2000/svg" viewBox="0 0 200 48" fill="none">
  <path d="M12 28c2-6 6-10 12-12 6 2 10 6 12 12-3 4-7 6-12 7-5-1-9-3-12-7z" fill="#0D9488" opacity="0.1"/>
  <path d="M12 28c2-6 6-10 12-12" stroke="#0D9488" stroke-width="2" stroke-linecap="round" fill="none"/>
  <path d="M36 28c-2-6-6-10-12-12" stroke="#0D9488" stroke-width="2" stroke-linecap="round" fill="none"/>
  <path d="M12 28c3 4 7 6 12 7 5-1 9-3 12-7" stroke="#0D9488" stroke-width="2" stroke-linecap="round" fill="none"/>
  <circle cx="24" cy="24" r="4" fill="#0D9488" opacity="0.15"/>
  <circle cx="24" cy="24" r="2.5" fill="#0D9488" opacity="0.25"/>
  <text x="48" y="32" font-family="Inter, system-ui, sans-serif" font-size="24" font-weight="600" fill="#1A2A3A">amanat</text>
</svg>
