<svg xmlns="http://www.w3.org/2000/svg" viewBox="0 0 48 48" fill="none">
  <path d="M12 28c2-6 6-10 12-12 6 2 10 6 12 12-3 4-7 6-12 7-5-1-9-3-12-7z" fill="#14B8A6" opacity="0.15"/>
  <path d="M12 28c2-6 6-10 12-12" stroke="#14B8A6" stroke-width="2" stroke-linecap="round" fill="none"/>
  <path d="M36 28c-2-6-6-10-12-12" stroke="#14B8A6" stroke-width="2" stroke-linecap="round" fill="none"/>
  <path d="M12 28c3 4 7 6 12 7 5-1 9-3 12-7" stroke="#14B8A6" stroke-width="2" stroke-linecap="round" fill="none"/>
  <circle cx="24" cy="24" r="4" fill="#14B8A6" opacity="0.2"/>
  <circle cx="24" cy="24" r="2.5" fill="#14B8A6" opacity="0.35"/>
</svg>
